<svg xmlns="http://www.w3.org/2000/svg" width="79.987" height="21.586" viewBox="0 0 79.987 21.586">
  <g id="Group_8" data-name="Group 8" transform="translate(-189.401 -26.914)">
    <path id="Path_132" data-name="Path 132" d="M215.272,48H218.3l2.712-13.968h5.232l.552-2.76H213.3l-.552,2.76h5.232Zm16.653-12.072a4.011,4.011,0,0,0-3.456,2.112l.384-1.872h-2.9L223.645,48h2.88l1.128-5.832c.432-2.232,1.608-3.432,3.432-3.432a2.1,2.1,0,0,1,1.3.336l1.776-2.424A3.7,3.7,0,0,0,231.925,35.928ZM243.8,43.152a11.067,11.067,0,0,0,.408-2.64c0-2.616-1.416-4.584-4.536-4.584-4.008,0-6.792,3.456-6.792,7.56,0,2.616,1.392,4.752,4.872,4.752a7.311,7.311,0,0,0,5.16-2.064l-1.728-1.92a4.492,4.492,0,0,1-3.168,1.368c-1.632,0-2.376-.744-2.376-2.04a2.61,2.61,0,0,1,.024-.432Zm-4.344-4.824a1.879,1.879,0,0,1,2.136,1.848,2.51,2.51,0,0,1-.168.888H236.1A3.557,3.557,0,0,1,239.457,38.328ZM248.279,48h2.376l7.128-11.832h-3.168l-4.488,8.088-1.272-8.088h-3.1Zm18.205-11.832-.264,1.3A3.838,3.838,0,0,0,263,35.928c-3.816,0-6.192,3.816-6.192,7.776,0,2.688,1.368,4.536,4.08,4.536a4.528,4.528,0,0,0,3.576-1.608L264.2,48h2.88l2.3-11.832Zm-4.656,9.408a1.9,1.9,0,0,1-2.16-2.136c0-2.472,1.368-4.9,3.816-4.9a2.074,2.074,0,0,1,2.28,2.328C265.764,43.3,264.3,45.576,261.828,45.576Z" fill="#fff"/>
    <g id="Group_6" data-name="Group 6">
      <path id="Path_131" data-name="Path 131" d="M203,48h-4l3-14-5,3,1-3,9-6Z" fill="#fff" stroke="#fff" stroke-width="1"/>
      <path id="Path_133" data-name="Path 133" d="M197,48h-7l1-5.5,8-4.5Z" fill="#528ff0" stroke="#528ff0" stroke-width="1"/>
    </g>
  </g>
</svg>
