<svg xmlns="http://www.w3.org/2000/svg" width="232" height="180" viewBox="0 0 232 180">
  <g id="Group_12" data-name="Group 12" transform="translate(-3639 1130)">
    <circle id="Ellipse_3" data-name="Ellipse 3" cx="6" cy="6" r="6" transform="translate(3639 -1130)" fill="#f2f7fd"/>
    <circle id="Ellipse_4" data-name="Ellipse 4" cx="6" cy="6" r="6" transform="translate(3639 -1106)" fill="#f2f7fd"/>
    <circle id="Ellipse_5" data-name="Ellipse 5" cx="6" cy="6" r="6" transform="translate(3639 -1082)" fill="#f2f7fd"/>
    <circle id="Ellipse_6" data-name="Ellipse 6" cx="6" cy="6" r="6" transform="translate(3639 -1058)" fill="#f2f7fd"/>
    <circle id="Ellipse_7" data-name="Ellipse 7" cx="6" cy="6" r="6" transform="translate(3639 -1034)" fill="#f2f7fd"/>
    <circle id="Ellipse_8" data-name="Ellipse 8" cx="6" cy="6" r="6" transform="translate(3639 -1010)" fill="#f2f7fd"/>
    <circle id="Ellipse_9" data-name="Ellipse 9" cx="6" cy="6" r="6" transform="translate(3639 -986)" fill="#f2f7fd"/>
    <circle id="Ellipse_10" data-name="Ellipse 10" cx="6" cy="6" r="6" transform="translate(3639 -962)" fill="#f2f7fd"/>
    <circle id="Ellipse_11" data-name="Ellipse 11" cx="6" cy="6" r="6" transform="translate(3659 -1130)" fill="#f2f7fd"/>
    <circle id="Ellipse_12" data-name="Ellipse 12" cx="6" cy="6" r="6" transform="translate(3659 -1106)" fill="#f2f7fd"/>
    <circle id="Ellipse_13" data-name="Ellipse 13" cx="6" cy="6" r="6" transform="translate(3659 -1082)" fill="#f2f7fd"/>
    <circle id="Ellipse_14" data-name="Ellipse 14" cx="6" cy="6" r="6" transform="translate(3659 -1058)" fill="#f2f7fd"/>
    <circle id="Ellipse_15" data-name="Ellipse 15" cx="6" cy="6" r="6" transform="translate(3659 -1034)" fill="#f2f7fd"/>
    <circle id="Ellipse_16" data-name="Ellipse 16" cx="6" cy="6" r="6" transform="translate(3659 -1010)" fill="#f2f7fd"/>
    <circle id="Ellipse_17" data-name="Ellipse 17" cx="6" cy="6" r="6" transform="translate(3659 -986)" fill="#f2f7fd"/>
    <circle id="Ellipse_18" data-name="Ellipse 18" cx="6" cy="6" r="6" transform="translate(3659 -962)" fill="#f2f7fd"/>
    <circle id="Ellipse_19" data-name="Ellipse 19" cx="6" cy="6" r="6" transform="translate(3679 -1130)" fill="#f2f7fd"/>
    <circle id="Ellipse_20" data-name="Ellipse 20" cx="6" cy="6" r="6" transform="translate(3679 -1106)" fill="#f2f7fd"/>
    <circle id="Ellipse_21" data-name="Ellipse 21" cx="6" cy="6" r="6" transform="translate(3679 -1082)" fill="#f2f7fd"/>
    <circle id="Ellipse_22" data-name="Ellipse 22" cx="6" cy="6" r="6" transform="translate(3679 -1058)" fill="#f2f7fd"/>
    <circle id="Ellipse_23" data-name="Ellipse 23" cx="6" cy="6" r="6" transform="translate(3679 -1034)" fill="#f2f7fd"/>
    <circle id="Ellipse_24" data-name="Ellipse 24" cx="6" cy="6" r="6" transform="translate(3679 -1010)" fill="#f2f7fd"/>
    <circle id="Ellipse_25" data-name="Ellipse 25" cx="6" cy="6" r="6" transform="translate(3679 -986)" fill="#f2f7fd"/>
    <circle id="Ellipse_26" data-name="Ellipse 26" cx="6" cy="6" r="6" transform="translate(3679 -962)" fill="#f2f7fd"/>
    <circle id="Ellipse_27" data-name="Ellipse 27" cx="6" cy="6" r="6" transform="translate(3699 -1130)" fill="#f2f7fd"/>
    <circle id="Ellipse_28" data-name="Ellipse 28" cx="6" cy="6" r="6" transform="translate(3699 -1106)" fill="#f2f7fd"/>
    <circle id="Ellipse_29" data-name="Ellipse 29" cx="6" cy="6" r="6" transform="translate(3699 -1082)" fill="#f2f7fd"/>
    <circle id="Ellipse_30" data-name="Ellipse 30" cx="6" cy="6" r="6" transform="translate(3699 -1058)" fill="#f2f7fd"/>
    <circle id="Ellipse_31" data-name="Ellipse 31" cx="6" cy="6" r="6" transform="translate(3699 -1034)" fill="#f2f7fd"/>
    <circle id="Ellipse_32" data-name="Ellipse 32" cx="6" cy="6" r="6" transform="translate(3699 -1010)" fill="#f2f7fd"/>
    <circle id="Ellipse_33" data-name="Ellipse 33" cx="6" cy="6" r="6" transform="translate(3699 -986)" fill="#f2f7fd"/>
    <circle id="Ellipse_34" data-name="Ellipse 34" cx="6" cy="6" r="6" transform="translate(3699 -962)" fill="#f2f7fd"/>
    <circle id="Ellipse_35" data-name="Ellipse 35" cx="6" cy="6" r="6" transform="translate(3719 -1130)" fill="#f2f7fd"/>
    <circle id="Ellipse_36" data-name="Ellipse 36" cx="6" cy="6" r="6" transform="translate(3719 -1106)" fill="#f2f7fd"/>
    <circle id="Ellipse_37" data-name="Ellipse 37" cx="6" cy="6" r="6" transform="translate(3719 -1082)" fill="#f2f7fd"/>
    <circle id="Ellipse_38" data-name="Ellipse 38" cx="6" cy="6" r="6" transform="translate(3719 -1058)" fill="#f2f7fd"/>
    <circle id="Ellipse_39" data-name="Ellipse 39" cx="6" cy="6" r="6" transform="translate(3719 -1034)" fill="#f2f7fd"/>
    <circle id="Ellipse_40" data-name="Ellipse 40" cx="6" cy="6" r="6" transform="translate(3719 -1010)" fill="#f2f7fd"/>
    <circle id="Ellipse_41" data-name="Ellipse 41" cx="6" cy="6" r="6" transform="translate(3719 -986)" fill="#f2f7fd"/>
    <circle id="Ellipse_42" data-name="Ellipse 42" cx="6" cy="6" r="6" transform="translate(3719 -962)" fill="#f2f7fd"/>
    <circle id="Ellipse_43" data-name="Ellipse 43" cx="6" cy="6" r="6" transform="translate(3739 -1130)" fill="#f2f7fd"/>
    <circle id="Ellipse_44" data-name="Ellipse 44" cx="6" cy="6" r="6" transform="translate(3739 -1106)" fill="#f2f7fd"/>
    <circle id="Ellipse_45" data-name="Ellipse 45" cx="6" cy="6" r="6" transform="translate(3739 -1082)" fill="#f2f7fd"/>
    <circle id="Ellipse_46" data-name="Ellipse 46" cx="6" cy="6" r="6" transform="translate(3739 -1058)" fill="#f2f7fd"/>
    <circle id="Ellipse_47" data-name="Ellipse 47" cx="6" cy="6" r="6" transform="translate(3739 -1034)" fill="#f2f7fd"/>
    <circle id="Ellipse_48" data-name="Ellipse 48" cx="6" cy="6" r="6" transform="translate(3739 -1010)" fill="#f2f7fd"/>
    <circle id="Ellipse_49" data-name="Ellipse 49" cx="6" cy="6" r="6" transform="translate(3739 -986)" fill="#f2f7fd"/>
    <circle id="Ellipse_50" data-name="Ellipse 50" cx="6" cy="6" r="6" transform="translate(3739 -962)" fill="#f2f7fd"/>
    <circle id="Ellipse_51" data-name="Ellipse 51" cx="6" cy="6" r="6" transform="translate(3759 -1130)" fill="#f2f7fd"/>
    <circle id="Ellipse_52" data-name="Ellipse 52" cx="6" cy="6" r="6" transform="translate(3759 -1106)" fill="#f2f7fd"/>
    <circle id="Ellipse_53" data-name="Ellipse 53" cx="6" cy="6" r="6" transform="translate(3759 -1082)" fill="#f2f7fd"/>
    <circle id="Ellipse_54" data-name="Ellipse 54" cx="6" cy="6" r="6" transform="translate(3759 -1058)" fill="#f2f7fd"/>
    <circle id="Ellipse_55" data-name="Ellipse 55" cx="6" cy="6" r="6" transform="translate(3759 -1034)" fill="#f2f7fd"/>
    <circle id="Ellipse_56" data-name="Ellipse 56" cx="6" cy="6" r="6" transform="translate(3759 -1010)" fill="#f2f7fd"/>
    <circle id="Ellipse_57" data-name="Ellipse 57" cx="6" cy="6" r="6" transform="translate(3759 -986)" fill="#f2f7fd"/>
    <circle id="Ellipse_58" data-name="Ellipse 58" cx="6" cy="6" r="6" transform="translate(3759 -962)" fill="#f2f7fd"/>
    <circle id="Ellipse_59" data-name="Ellipse 59" cx="6" cy="6" r="6" transform="translate(3779 -1130)" fill="#f2f7fd"/>
    <circle id="Ellipse_60" data-name="Ellipse 60" cx="6" cy="6" r="6" transform="translate(3779 -1106)" fill="#f2f7fd"/>
    <circle id="Ellipse_61" data-name="Ellipse 61" cx="6" cy="6" r="6" transform="translate(3779 -1082)" fill="#f2f7fd"/>
    <circle id="Ellipse_62" data-name="Ellipse 62" cx="6" cy="6" r="6" transform="translate(3779 -1058)" fill="#f2f7fd"/>
    <circle id="Ellipse_63" data-name="Ellipse 63" cx="6" cy="6" r="6" transform="translate(3779 -1034)" fill="#f2f7fd"/>
    <circle id="Ellipse_64" data-name="Ellipse 64" cx="6" cy="6" r="6" transform="translate(3779 -1010)" fill="#f2f7fd"/>
    <circle id="Ellipse_65" data-name="Ellipse 65" cx="6" cy="6" r="6" transform="translate(3779 -986)" fill="#f2f7fd"/>
    <circle id="Ellipse_66" data-name="Ellipse 66" cx="6" cy="6" r="6" transform="translate(3779 -962)" fill="#f2f7fd"/>
    <circle id="Ellipse_67" data-name="Ellipse 67" cx="6" cy="6" r="6" transform="translate(3799 -1130)" fill="#f2f7fd"/>
    <circle id="Ellipse_68" data-name="Ellipse 68" cx="6" cy="6" r="6" transform="translate(3799 -1106)" fill="#f2f7fd"/>
    <circle id="Ellipse_69" data-name="Ellipse 69" cx="6" cy="6" r="6" transform="translate(3799 -1082)" fill="#f2f7fd"/>
    <circle id="Ellipse_70" data-name="Ellipse 70" cx="6" cy="6" r="6" transform="translate(3799 -1058)" fill="#f2f7fd"/>
    <circle id="Ellipse_71" data-name="Ellipse 71" cx="6" cy="6" r="6" transform="translate(3799 -1034)" fill="#f2f7fd"/>
    <circle id="Ellipse_72" data-name="Ellipse 72" cx="6" cy="6" r="6" transform="translate(3799 -1010)" fill="#f2f7fd"/>
    <circle id="Ellipse_73" data-name="Ellipse 73" cx="6" cy="6" r="6" transform="translate(3799 -986)" fill="#f2f7fd"/>
    <circle id="Ellipse_74" data-name="Ellipse 74" cx="6" cy="6" r="6" transform="translate(3799 -962)" fill="#f2f7fd"/>
    <circle id="Ellipse_75" data-name="Ellipse 75" cx="6" cy="6" r="6" transform="translate(3819 -1130)" fill="#f2f7fd"/>
    <circle id="Ellipse_76" data-name="Ellipse 76" cx="6" cy="6" r="6" transform="translate(3819 -1106)" fill="#f2f7fd"/>
    <circle id="Ellipse_77" data-name="Ellipse 77" cx="6" cy="6" r="6" transform="translate(3819 -1082)" fill="#f2f7fd"/>
    <circle id="Ellipse_78" data-name="Ellipse 78" cx="6" cy="6" r="6" transform="translate(3819 -1058)" fill="#f2f7fd"/>
    <circle id="Ellipse_79" data-name="Ellipse 79" cx="6" cy="6" r="6" transform="translate(3819 -1034)" fill="#f2f7fd"/>
    <circle id="Ellipse_80" data-name="Ellipse 80" cx="6" cy="6" r="6" transform="translate(3839 -1130)" fill="#f2f7fd"/>
    <circle id="Ellipse_81" data-name="Ellipse 81" cx="6" cy="6" r="6" transform="translate(3839 -1106)" fill="#f2f7fd"/>
    <circle id="Ellipse_82" data-name="Ellipse 82" cx="6" cy="6" r="6" transform="translate(3839 -1082)" fill="#f2f7fd"/>
    <circle id="Ellipse_83" data-name="Ellipse 83" cx="6" cy="6" r="6" transform="translate(3839 -1058)" fill="#f2f7fd"/>
    <circle id="Ellipse_84" data-name="Ellipse 84" cx="6" cy="6" r="6" transform="translate(3839 -1034)" fill="#f2f7fd"/>
    <circle id="Ellipse_85" data-name="Ellipse 85" cx="6" cy="6" r="6" transform="translate(3859 -1130)" fill="#f2f7fd"/>
    <circle id="Ellipse_86" data-name="Ellipse 86" cx="6" cy="6" r="6" transform="translate(3859 -1106)" fill="#f2f7fd"/>
    <circle id="Ellipse_87" data-name="Ellipse 87" cx="6" cy="6" r="6" transform="translate(3859 -1082)" fill="#f2f7fd"/>
    <circle id="Ellipse_88" data-name="Ellipse 88" cx="6" cy="6" r="6" transform="translate(3859 -1058)" fill="#f2f7fd"/>
    <circle id="Ellipse_89" data-name="Ellipse 89" cx="6" cy="6" r="6" transform="translate(3859 -1034)" fill="#f2f7fd"/>
  </g>
</svg>
