<svg xmlns="http://www.w3.org/2000/svg" width="87" height="14.25" viewBox="0 0 87 14.25">
  <g id="Group_11" data-name="Group 11" transform="translate(-801.5 -1147.5)">
    <path id="Path_16" data-name="Path 16" d="M809,1158.95l4.635,2.8-1.23-5.27,4.095-3.55-5.392-.46L809,1147.5l-2.108,4.97-5.392.46,4.095,3.55-1.23,5.27Z" fill="#ffd200"/>
    <path id="Path_17" data-name="Path 17" d="M827,1158.95l4.635,2.8-1.23-5.27,4.095-3.55-5.392-.46L827,1147.5l-2.108,4.97-5.392.46,4.095,3.55-1.23,5.27Z" fill="#ffd200"/>
    <path id="Path_18" data-name="Path 18" d="M845,1158.95l4.635,2.8-1.23-5.27,4.095-3.55-5.392-.46L845,1147.5l-2.108,4.97-5.392.46,4.095,3.55-1.23,5.27Z" fill="#ffd200"/>
    <path id="Path_19" data-name="Path 19" d="M863,1158.95l4.635,2.8-1.23-5.27,4.095-3.55-5.392-.46L863,1147.5l-2.108,4.97-5.392.46,4.095,3.55-1.23,5.27Z" fill="#ffd200"/>
    <path id="Path_20" data-name="Path 20" d="M888.5,1152.93l-5.392-.47L881,1147.5l-2.108,4.97-5.392.46,4.095,3.55-1.23,5.27,4.635-2.8,4.635,2.8-1.223-5.27Zm-7.5,4.62v-6.98l1.283,3.04,3.285.28-2.49,2.16.75,3.21Z" fill="#ffd200"/>
  </g>
</svg>
