<svg xmlns="http://www.w3.org/2000/svg" width="65" height="16" viewBox="0 0 65 16">
  <g id="Group_12" data-name="Group 12" transform="translate(-1102 -1523)">
    <rect id="Rectangle_23" data-name="Rectangle 23" width="65" height="16" rx="8" transform="translate(1102 1523)" fill="#b1fbe3"/>
    <path id="Path_32" data-name="Path 32" d="M1112.14,1535h1.51l1.35-6.98h2.62l.28-1.38h-6.75l-.27,1.38h2.61Zm8.32-6.04a2.021,2.021,0,0,0-1.73,1.06l.2-.94h-1.46l-1.15,5.92h1.44l.57-2.92c.21-1.11.8-1.71,1.71-1.71a1.009,1.009,0,0,1,.65.17l.89-1.22A1.871,1.871,0,0,0,1120.46,1528.96Zm5.94,3.62a5.449,5.449,0,0,0,.2-1.32,2.086,2.086,0,0,0-2.26-2.3,3.543,3.543,0,0,0-3.4,3.78,2.2,2.2,0,0,0,2.44,2.38,3.666,3.666,0,0,0,2.58-1.03l-.87-.96a2.228,2.228,0,0,1-1.58.68c-.82,0-1.19-.37-1.19-1.02a1.477,1.477,0,0,1,.01-.21Zm-2.17-2.42a.946.946,0,0,1,1.07.93,1.234,1.234,0,0,1-.09.44h-2.66A1.785,1.785,0,0,1,1124.23,1530.16Zm4.41,4.84h1.19l3.56-5.92h-1.58l-2.25,4.05-.63-4.05h-1.55Zm9.1-5.92-.13.65a1.935,1.935,0,0,0-1.61-.77c-1.91,0-3.09,1.91-3.09,3.89,0,1.35.68,2.27,2.04,2.27a2.243,2.243,0,0,0,1.78-.8l-.13.68h1.44l1.15-5.92Zm-2.33,4.71a.956.956,0,0,1-1.08-1.07c0-1.24.69-2.45,1.91-2.45a1.036,1.036,0,0,1,1.14,1.17A2.137,2.137,0,0,1,1135.41,1533.79Zm4.53,1.21h1.49l.67-3.47h1.28c1.83,0,2.97-.67,3.28-2.25.3-1.55-.4-2.64-2.39-2.64h-2.7Zm2.44-4.85.4-2.13h1.13c.97,0,1.43.3,1.29,1.06-.17.87-.8,1.07-1.77,1.07Zm8.78-1.07-.13.65a1.935,1.935,0,0,0-1.61-.77c-1.91,0-3.1,1.91-3.1,3.89,0,1.35.69,2.27,2.04,2.27a2.262,2.262,0,0,0,1.79-.8l-.13.68h1.44l1.15-5.92Zm-2.33,4.71a.955.955,0,0,1-1.08-1.07c0-1.24.69-2.45,1.91-2.45a1.041,1.041,0,0,1,1.14,1.17A2.137,2.137,0,0,1,1148.83,1533.79Zm8.98-4.71-2.34,3.95-.67-3.95h-1.56l1.18,5.73-1.56,2.64h1.58l4.98-8.37Z"/>
  </g>
</svg>
